<svg width="28" height="30" viewBox="0 0 28 30" fill="none" xmlns="http://www.w3.org/2000/svg">
<path d="M2 28.1413L1.00125 28.0913L0.948751 29.1413H2V28.1413ZM2.5 18.1413L1.79289 17.4342L1.52049 17.7066L1.50125 18.0914L2.5 18.1413ZM10.5 25.6413L9.79289 26.3484L10.5159 27.0714L11.2226 26.3325L10.5 25.6413ZM25 2.25968L25.6976 1.54322L25 2.25968ZM6.20711 19.9342C5.81658 19.5437 5.18342 19.5437 4.79289 19.9342C4.40237 20.3247 4.40237 20.9579 4.79289 21.3484L6.20711 19.9342ZM6.5 27.1413H2V29.1413H6.5V27.1413ZM2.99875 28.1912L3.49875 18.1912L1.50125 18.0914L1.00125 28.0913L2.99875 28.1912ZM3.20711 18.8484L14.7071 7.34841L13.2929 5.93419L1.79289 17.4342L3.20711 18.8484ZM20.7774 13.4501L9.77736 24.9501L11.2226 26.3325L22.2226 14.8325L20.7774 13.4501ZM14 6.6413C14.8097 7.2281 14.8096 7.22829 14.8095 7.22846C14.8095 7.22847 14.8094 7.22859 14.8094 7.22861C14.8093 7.22865 14.8094 7.22856 14.8096 7.22834C14.8099 7.22789 14.8106 7.22691 14.8117 7.22542C14.8139 7.22245 14.8176 7.21741 14.8227 7.21041C14.8331 7.19639 14.8494 7.1745 14.8713 7.1454C14.9153 7.08717 14.9819 7.00019 15.0691 6.88981C15.2437 6.66884 15.5001 6.35526 15.8222 5.9915C16.4704 5.2596 17.367 4.34485 18.3846 3.57162C19.4149 2.7888 20.4919 2.21078 21.5054 2.04701C22.4581 1.89306 23.3956 2.09321 24.3024 2.97615L25.6976 1.54322C24.3106 0.19268 22.7262 -0.17621 21.1863 0.0726207C19.7072 0.311625 18.3209 1.1082 17.1746 1.97915C16.0158 2.8597 15.0225 3.8779 14.325 4.66552C13.9743 5.06152 13.6939 5.40434 13.4999 5.64982C13.4028 5.77266 13.3272 5.87143 13.2749 5.94064C13.2488 5.97526 13.2285 6.0025 13.2143 6.0217C13.2072 6.0313 13.2017 6.03889 13.1976 6.04439C13.1956 6.04713 13.194 6.04936 13.1928 6.05105C13.1922 6.05189 13.1916 6.0526 13.1912 6.05318C13.191 6.05347 13.1908 6.0538 13.1907 6.05394C13.1905 6.05424 13.1903 6.0545 14 6.6413ZM24.3024 2.97615C25.1833 3.8339 25.4498 4.81426 25.3555 5.87621C25.2571 6.98372 24.7604 8.18241 24.0775 9.33332C23.4014 10.4729 22.5848 11.4959 21.9293 12.24C21.6033 12.6101 21.321 12.9068 21.1217 13.1095C21.0222 13.2108 20.9437 13.2884 20.891 13.3397C20.8647 13.3653 20.8449 13.3843 20.8322 13.3965C20.8258 13.4025 20.8212 13.4069 20.8185 13.4094C20.8172 13.4107 20.8163 13.4116 20.8159 13.412C20.8157 13.4121 20.8156 13.4122 20.8156 13.4122C20.8156 13.4122 20.8157 13.4121 20.8157 13.4121C20.8159 13.4119 20.8161 13.4118 21.5 14.1413C22.1839 14.8709 22.1842 14.8706 22.1844 14.8704C22.1846 14.8703 22.1849 14.87 22.1851 14.8697C22.1856 14.8693 22.1863 14.8687 22.187 14.8679C22.1886 14.8665 22.1906 14.8646 22.193 14.8623C22.198 14.8576 22.2048 14.8511 22.2135 14.8429C22.2308 14.8263 22.2553 14.8027 22.2865 14.7724C22.3488 14.7116 22.4377 14.6238 22.5482 14.5114C22.7689 14.2869 23.0764 13.9634 23.4301 13.562C24.134 12.7629 25.0361 11.6371 25.7975 10.3539C26.5521 9.0821 27.2116 7.58423 27.3476 6.05316C27.4877 4.47653 27.0667 2.87628 25.6976 1.54322L24.3024 2.97615ZM14 6.6413C14.3079 7.59271 14.3077 7.59277 14.3075 7.59284C14.3075 7.59285 14.3073 7.59291 14.3072 7.59293C14.3071 7.59298 14.307 7.59301 14.307 7.59302C14.307 7.59302 14.3072 7.59294 14.3078 7.59275C14.3089 7.59239 14.3112 7.59166 14.3147 7.59057C14.3216 7.5884 14.333 7.58483 14.3488 7.58002C14.3803 7.57038 14.4291 7.5558 14.4931 7.53754C14.6212 7.50098 14.8097 7.44994 15.0433 7.39452C15.513 7.28309 16.1526 7.15693 16.8428 7.0926C17.5387 7.02774 18.2479 7.02953 18.8712 7.15102C19.4956 7.27271 19.9633 7.4999 20.2729 7.8278L21.7271 6.4548C21.0367 5.72351 20.1294 5.35862 19.2538 5.18796C18.3771 5.01709 17.4613 5.02629 16.6572 5.10123C15.8474 5.17669 15.112 5.32273 14.5817 5.44854C14.3153 5.51174 14.0975 5.57058 13.9444 5.61426C13.8678 5.63612 13.8072 5.65423 13.7645 5.66727C13.7431 5.67379 13.7263 5.67905 13.7141 5.68287C13.708 5.68479 13.7031 5.68634 13.6995 5.68752C13.6976 5.68811 13.6961 5.6886 13.6948 5.689C13.6942 5.6892 13.6937 5.68937 13.6932 5.68952C13.693 5.6896 13.6927 5.68969 13.6926 5.68973C13.6923 5.68982 13.6921 5.6899 14 6.6413ZM20.2729 7.8278C20.5975 8.17164 20.8196 8.67146 20.9388 9.31172C21.0574 9.94937 21.0616 10.6618 21.0035 11.3518C20.9459 12.037 20.8298 12.6671 20.7271 13.1279C20.676 13.3572 20.6288 13.5418 20.595 13.6671C20.5782 13.7296 20.5647 13.7772 20.5558 13.808C20.5513 13.8233 20.548 13.8345 20.546 13.8411C20.545 13.8445 20.5444 13.8467 20.544 13.8478C20.5439 13.8483 20.5438 13.8486 20.5438 13.8486C20.5438 13.8486 20.5438 13.8485 20.5439 13.8483C20.5439 13.8482 20.544 13.848 20.544 13.848C20.544 13.8478 20.5441 13.8476 21.5 14.1413C22.4559 14.435 22.456 14.4348 22.4561 14.4345C22.4561 14.4344 22.4562 14.4341 22.4562 14.4339C22.4564 14.4334 22.4565 14.4329 22.4567 14.4323C22.4571 14.4311 22.4576 14.4295 22.4581 14.4277C22.4592 14.4241 22.4607 14.4193 22.4624 14.4133C22.466 14.4014 22.4709 14.3849 22.4769 14.364C22.489 14.3222 22.5058 14.2628 22.5261 14.1878C22.5665 14.0378 22.6209 13.8245 22.6792 13.563C22.7952 13.0423 22.9291 12.3196 22.9965 11.5196C23.0634 10.7244 23.0676 9.81921 22.905 8.94576C22.7429 8.07493 22.4025 7.17014 21.7271 6.4548L20.2729 7.8278ZM11.2071 24.9342L6.20711 19.9342L4.79289 21.3484L9.79289 26.3484L11.2071 24.9342Z" fill="#3D2E87"/>
</svg>
